+ filenameToUse=/home/horvathandras/vatic/vatic/public/videouploads/DJI_0018_30m_fekhelyek_gyer_gabonaban.avi
+ filenameNoDot=DJI_0018_30m_fekhelyek_gyer_gabonaban_Homokmegy_20180425_napos_kalaszos_T3
+ FullUploadPath=/home/horvathandras/vatic/vatic/public/videouploads/DJI_0018_30m_fekhelyek_gyer_gabonaban.avi
+ VideoDataDir=/home/horvathandras/vatic/vatic/videos
+ AvailableObjectTypes='PozitívROI NegatívROI Túrás ~Friss ~Régebbi Rágás ~Friss ~Régebbi Törés ~Friss ~Régebbi Taposás ~Friss ~Régebbi EgészségesNövény Egyéb1 Egyéb2 Egyéb3 Egyéb4 Egyéb5'
++ dirname /home/horvathandras/vatic/vatic/vatic_publisher.sh
+ cd /home/horvathandras/vatic/vatic
+ touch /home/horvathandras/vatic/vatic/public/videouploads/DJI_0018_30m_fekhelyek_gyer_gabonaban.avi
+ chmod 744 /home/horvathandras/vatic/vatic/public/videouploads/DJI_0018_30m_fekhelyek_gyer_gabonaban.avi
+ mkdir /home/horvathandras/vatic/vatic/videos/DJI_0018_30m_fekhelyek_gyer_gabonaban_Homokmegy_20180425_napos_kalaszos_T3
+ turkic extract /home/horvathandras/vatic/vatic/public/videouploads/DJI_0018_30m_fekhelyek_gyer_gabonaban.avi /home/horvathandras/vatic/vatic/videos/DJI_0018_30m_fekhelyek_gyer_gabonaban_Homokmegy_20180425_napos_kalaszos_T3 --no-resize
ffmpeg version 2.8.14-0ubuntu0.16.04.1 Copyright (c) 2000-2018 the FFmpeg developers
  built with gcc 5.4.0 (Ubuntu 5.4.0-6ubuntu1~16.04.9) 20160609
  configuration: --prefix=/usr --extra-version=0ubuntu0.16.04.1 --build-suffix=-ffmpeg --toolchain=hardened --libdir=/usr/lib/x86_64-linux-gnu --incdir=/usr/include/x86_64-linux-gnu --cc=cc --cxx=g++ --enable-gpl --enable-shared --disable-stripping --disable-decoder=libopenjpeg --disable-decoder=libschroedinger --enable-avresample --enable-avisynth --enable-gnutls --enable-ladspa --enable-libass --enable-libbluray --enable-libbs2b --enable-libcaca --enable-libcdio --enable-libflite --enable-libfontconfig --enable-libfreetype --enable-libfribidi --enable-libgme --enable-libgsm --enable-libmodplug --enable-libmp3lame --enable-libopenjpeg --enable-libopus --enable-libpulse --enable-librtmp --enable-libschroedinger --enable-libshine --enable-libsnappy --enable-libsoxr --enable-libspeex --enable-libssh --enable-libtheora --enable-libtwolame --enable-libvorbis --enable-libvpx --enable-libwavpack --enable-libwebp --enable-libx265 --enable-libxvid --enable-libzvbi --enable-openal --enable-opengl --enable-x11grab --enable-libdc1394 --enable-libiec61883 --enable-libzmq --enable-frei0r --enable-libx264 --enable-libopencv
  libavutil      54. 31.100 / 54. 31.100
  libavcodec     56. 60.100 / 56. 60.100
  libavformat    56. 40.101 / 56. 40.101
  libavdevice    56.  4.100 / 56.  4.100
  libavfilter     5. 40.101 /  5. 40.101
  libavresample   2.  1.  0 /  2.  1.  0
  libswscale      3.  1.101 /  3.  1.101
  libswresample   1.  2.101 /  1.  2.101
  libpostproc    53.  3.100 / 53.  3.100
Input #0, mov,mp4,m4a,3gp,3g2,mj2, from '/home/horvathandras/vatic/vatic/public/videouploads/DJI_0018_30m_fekhelyek_gyer_gabonaban.avi':
  Metadata:
    major_brand     : qt  
    minor_version   : 537986816
    compatible_brands: qt  
    creation_time   : 2018-05-18 10:55:29
    location        : +46.501583+19.147038+31.900
    location-{    : +46.501583+19.147038+31.900
    comment         : DE=None, Mode=P, DSW=0001
  Duration: 00:00:33.27, start: 0.000000, bitrate: 100572 kb/s
    Stream #0:0(eng): Video: h264 (High) (avc1 / 0x31637661), yuv420p(tv, bt709), 4096x2160 [SAR 1:1 DAR 256:135], 100479 kb/s, 59.94 fps, 59.94 tbr, 60k tbn, 119.88 tbc (default)
    Metadata:
      creation_time   : 2018-05-18 10:55:29
      handler_name    : DJI.AVC
      encoder         : AVC encoder
    Stream #0:1(eng): Data: none (priv / 0x76697270), 86 kb/s
    Metadata:
      creation_time   : 2018-05-18 10:55:29
      handler_name    : DJI.Meta
Please use -b:a or -b:v, -b is ambiguous
[swscaler @ 0xa93000] deprecated pixel format used, make sure you did set range correctly
Output #0, image2, to '/tmp/pyvision-ffmpeg-498309041/%d.jpg':
  Metadata:
    major_brand     : qt  
    minor_version   : 537986816
    compatible_brands: qt  
    comment         : DE=None, Mode=P, DSW=0001
    location        : +46.501583+19.147038+31.900
    location-{    : +46.501583+19.147038+31.900
    encoder         : Lavf56.40.101
    Stream #0:0(eng): Video: mjpeg, yuvj420p(pc), 4096x2160 [SAR 1:1 DAR 256:135], q=2-31, 10000 kb/s, 59.94 fps, 59.94 tbn, 59.94 tbc (default)
    Metadata:
      creation_time   : 2018-05-18 10:55:29
      handler_name    : DJI.AVC
      encoder         : Lavc56.60.100 mjpeg
Stream mapping:
  Stream #0:0 -> #0:0 (h264 (native) -> mjpeg (native))
Press [q] to stop, [?] for help
frame=    2 fps=0.0 q=14.9 size=N/A time=00:00:00.03 bitrate=N/A    frame=    7 fps=5.9 q=24.8 size=N/A time=00:00:00.11 bitrate=N/A    frame=   12 fps=7.1 q=24.8 size=N/A time=00:00:00.20 bitrate=N/A    frame=   17 fps=7.7 q=24.8 size=N/A time=00:00:00.28 bitrate=N/A    frame=   22 fps=8.1 q=24.8 size=N/A time=00:00:00.36 bitrate=N/A    frame=   27 fps=8.4 q=24.8 size=N/A time=00:00:00.45 bitrate=N/A    frame=   32 fps=8.6 q=24.8 size=N/A time=00:00:00.53 bitrate=N/A    frame=   37 fps=8.8 q=24.8 size=N/A time=00:00:00.61 bitrate=N/A    frame=   42 fps=8.9 q=24.8 size=N/A time=00:00:00.70 bitrate=N/A    frame=   47 fps=9.0 q=24.8 size=N/A time=00:00:00.78 bitrate=N/A    frame=   52 fps=9.1 q=24.8 size=N/A time=00:00:00.86 bitrate=N/A    frame=   57 fps=9.1 q=24.8 size=N/A time=00:00:00.95 bitrate=N/A    frame=   62 fps=9.2 q=24.8 size=N/A time=00:00:01.03 bitrate=N/A    frame=   67 fps=9.3 q=24.8 size=N/A time=00:00:01.11 bitrate=N/A    frame=   72 fps=9.3 q=24.8 size=N/A time=00:00:01.20 bitrate=N/A    frame=   78 fps=9.4 q=24.8 size=N/A time=00:00:01.30 bitrate=N/A    frame=   84 fps=9.4 q=24.8 size=N/A time=00:00:01.40 bitrate=N/A    frame=   90 fps=9.4 q=24.8 size=N/A time=00:00:01.50 bitrate=N/A    frame=   95 fps=9.5 q=24.8 size=N/A time=00:00:01.58 bitrate=N/A    frame=  101 fps=9.5 q=24.8 size=N/A time=00:00:01.68 bitrate=N/A    frame=  107 fps=9.5 q=24.8 size=N/A time=00:00:01.78 bitrate=N/A    frame=  113 fps=9.6 q=24.8 size=N/A time=00:00:01.88 bitrate=N/A    frame=  119 fps=9.6 q=24.8 size=N/A time=00:00:01.98 bitrate=N/A    frame=  125 fps=9.6 q=24.8 size=N/A time=00:00:02.08 bitrate=N/A    frame=  131 fps=9.6 q=24.8 size=N/A time=00:00:02.18 bitrate=N/A    frame=  137 fps=9.7 q=24.8 size=N/A time=00:00:02.28 bitrate=N/A    frame=  143 fps=9.7 q=24.8 size=N/A time=00:00:02.38 bitrate=N/A    frame=  149 fps=9.7 q=24.8 size=N/A time=00:00:02.48 bitrate=N/A    frame=  155 fps=9.7 q=24.8 size=N/A time=00:00:02.58 bitrate=N/A    frame=  161 fps=9.7 q=24.8 size=N/A time=00:00:02.68 bitrate=N/A    frame=  167 fps=9.8 q=24.8 size=N/A time=00:00:02.78 bitrate=N/A    frame=  173 fps=9.8 q=24.8 size=N/A time=00:00:02.88 bitrate=N/A    frame=  179 fps=9.8 q=24.8 size=N/A time=00:00:02.98 bitrate=N/A    frame=  185 fps=9.8 q=24.8 size=N/A time=00:00:03.08 bitrate=N/A    frame=  191 fps=9.8 q=24.8 size=N/A time=00:00:03.18 bitrate=N/A    frame=  197 fps=9.8 q=24.8 size=N/A time=00:00:03.28 bitrate=N/A    frame=  203 fps=9.8 q=24.8 size=N/A time=00:00:03.38 bitrate=N/A    frame=  209 fps=9.8 q=24.8 size=N/A time=00:00:03.48 bitrate=N/A    frame=  215 fps=9.8 q=24.8 size=N/A time=00:00:03.58 bitrate=N/A    frame=  221 fps=9.9 q=24.8 size=N/A time=00:00:03.68 bitrate=N/A    frame=  227 fps=9.9 q=24.8 size=N/A time=00:00:03.78 bitrate=N/A    frame=  233 fps=9.9 q=24.8 size=N/A time=00:00:03.88 bitrate=N/A    frame=  239 fps=9.9 q=24.8 size=N/A time=00:00:03.98 bitrate=N/A    frame=  245 fps=9.9 q=24.8 size=N/A time=00:00:04.08 bitrate=N/A    frame=  251 fps=9.9 q=24.8 size=N/A time=00:00:04.18 bitrate=N/A    frame=  257 fps=9.9 q=24.8 size=N/A time=00:00:04.28 bitrate=N/A    frame=  263 fps=9.9 q=24.8 size=N/A time=00:00:04.38 bitrate=N/A    frame=  268 fps=9.9 q=24.8 size=N/A time=00:00:04.47 bitrate=N/A    frame=  274 fps=9.9 q=24.8 size=N/A time=00:00:04.57 bitrate=N/A    frame=  280 fps=9.9 q=24.8 size=N/A time=00:00:04.67 bitrate=N/A    frame=  286 fps=9.9 q=24.8 size=N/A time=00:00:04.77 bitrate=N/A    frame=  292 fps=9.9 q=24.8 size=N/A time=00:00:04.87 bitrate=N/A    frame=  298 fps=9.9 q=24.8 size=N/A time=00:00:04.97 bitrate=N/A    frame=  304 fps=9.9 q=24.8 size=N/A time=00:00:05.07 bitrate=N/A    frame=  310 fps=9.9 q=24.8 size=N/A time=00:00:05.17 bitrate=N/A    frame=  316 fps=9.9 q=24.8 size=N/A time=00:00:05.27 bitrate=N/A    frame=  321 fps=9.9 q=24.8 size=N/A time=00:00:05.35 bitrate=N/A    frame=  327 fps=9.9 q=24.8 size=N/A time=00:00:05.45 bitrate=N/A    frame=  333 fps=9.9 q=24.8 size=N/A time=00:00:05.55 bitrate=N/A    frame=  339 fps= 10 q=24.8 size=N/A time=00:00:05.65 bitrate=N/A    frame=  345 fps= 10 q=24.8 size=N/A time=00:00:05.75 bitrate=N/A    frame=  351 fps= 10 q=24.8 size=N/A time=00:00:05.85 bitrate=N/A    frame=  357 fps= 10 q=24.8 size=N/A time=00:00:05.95 bitrate=N/A    frame=  363 fps= 10 q=24.8 size=N/A time=00:00:06.05 bitrate=N/A    frame=  369 fps= 10 q=24.8 size=N/A time=00:00:06.15 bitrate=N/A    frame=  375 fps= 10 q=24.8 size=N/A time=00:00:06.25 bitrate=N/A    frame=  381 fps= 10 q=24.8 size=N/A time=00:00:06.35 bitrate=N/A    frame=  387 fps= 10 q=24.8 size=N/A time=00:00:06.45 bitrate=N/A    frame=  393 fps= 10 q=24.8 size=N/A time=00:00:06.55 bitrate=N/A    frame=  399 fps= 10 q=24.8 size=N/A time=00:00:06.65 bitrate=N/A    frame=  405 fps= 10 q=24.8 size=N/A time=00:00:06.75 bitrate=N/A    frame=  411 fps= 10 q=24.8 size=N/A time=00:00:06.85 bitrate=N/A    frame=  417 fps= 10 q=24.8 size=N/A time=00:00:06.95 bitrate=N/A    frame=  423 fps= 10 q=24.8 size=N/A time=00:00:07.05 bitrate=N/A    frame=  429 fps= 10 q=24.8 size=N/A time=00:00:07.15 bitrate=N/A    frame=  435 fps= 10 q=24.8 size=N/A time=00:00:07.25 bitrate=N/A    frame=  441 fps= 10 q=24.8 size=N/A time=00:00:07.35 bitrate=N/A    frame=  447 fps= 10 q=24.8 size=N/A time=00:00:07.45 bitrate=N/A    frame=  453 fps= 10 q=24.8 size=N/A time=00:00:07.55 bitrate=N/A    frame=  459 fps= 10 q=24.8 size=N/A time=00:00:07.65 bitrate=N/A    frame=  465 fps= 10 q=24.8 size=N/A time=00:00:07.75 bitrate=N/A    frame=  471 fps= 10 q=24.8 size=N/A time=00:00:07.85 bitrate=N/A    frame=  477 fps= 10 q=24.8 size=N/A time=00:00:07.95 bitrate=N/A    frame=  483 fps= 10 q=24.8 size=N/A time=00:00:08.05 bitrate=N/A    frame=  489 fps= 10 q=24.8 size=N/A time=00:00:08.15 bitrate=N/A    frame=  495 fps= 10 q=24.8 size=N/A time=00:00:08.25 bitrate=N/A    frame=  501 fps= 10 q=24.8 size=N/A time=00:00:08.35 bitrate=N/A    frame=  507 fps= 10 q=24.8 size=N/A time=00:00:08.45 bitrate=N/A    frame=  513 fps= 10 q=24.8 size=N/A time=00:00:08.55 bitrate=N/A    frame=  519 fps= 10 q=24.8 size=N/A time=00:00:08.65 bitrate=N/A    frame=  525 fps= 10 q=24.8 size=N/A time=00:00:08.75 bitrate=N/A    frame=  531 fps= 10 q=24.8 size=N/A time=00:00:08.85 bitrate=N/A    frame=  537 fps= 10 q=24.8 size=N/A time=00:00:08.95 bitrate=N/A    frame=  543 fps= 10 q=24.8 size=N/A time=00:00:09.05 bitrate=N/A    frame=  549 fps= 10 q=24.8 size=N/A time=00:00:09.15 bitrate=N/A    frame=  555 fps= 10 q=24.8 size=N/A time=00:00:09.25 bitrate=N/A    frame=  561 fps= 10 q=24.8 size=N/A time=00:00:09.35 bitrate=N/A    frame=  567 fps= 10 q=24.8 size=N/A time=00:00:09.45 bitrate=N/A    frame=  573 fps= 10 q=24.8 size=N/A time=00:00:09.55 bitrate=N/A    frame=  579 fps= 10 q=24.8 size=N/A time=00:00:09.65 bitrate=N/A    frame=  585 fps= 10 q=24.8 size=N/A time=00:00:09.75 bitrate=N/A    frame=  591 fps= 10 q=24.8 size=N/A time=00:00:09.85 bitrate=N/A    frame=  597 fps= 10 q=24.8 size=N/A time=00:00:09.95 bitrate=N/A    frame=  603 fps= 10 q=24.8 size=N/A time=00:00:10.06 bitrate=N/A    frame=  609 fps= 10 q=24.8 size=N/A time=00:00:10.16 bitrate=N/A    frame=  615 fps= 10 q=24.8 size=N/A time=00:00:10.26 bitrate=N/A    frame=  621 fps= 10 q=24.8 size=N/A time=00:00:10.36 bitrate=N/A    frame=  627 fps= 10 q=24.8 size=N/A time=00:00:10.46 bitrate=N/A    frame=  633 fps= 10 q=24.8 size=N/A time=00:00:10.56 bitrate=N/A    frame=  639 fps= 10 q=24.8 size=N/A time=00:00:10.66 bitrate=N/A    frame=  645 fps= 10 q=24.8 size=N/A time=00:00:10.76 bitrate=N/A    frame=  651 fps= 10 q=24.8 size=N/A time=00:00:10.86 bitrate=N/A    frame=  657 fps= 10 q=24.8 size=N/A time=00:00:10.96 bitrate=N/A    frame=  663 fps= 10 q=24.8 size=N/A time=00:00:11.06 bitrate=N/A    frame=  669 fps= 10 q=24.8 size=N/A time=00:00:11.16 bitrate=N/A    frame=  675 fps= 10 q=24.8 size=N/A time=00:00:11.26 bitrate=N/A    frame=  681 fps= 10 q=24.8 size=N/A time=00:00:11.36 bitrate=N/A    frame=  687 fps= 10 q=24.8 size=N/A time=00:00:11.46 bitrate=N/A    frame=  693 fps= 10 q=24.8 size=N/A time=00:00:11.56 bitrate=N/A    frame=  699 fps= 10 q=24.8 size=N/A time=00:00:11.66 bitrate=N/A    frame=  705 fps= 10 q=24.8 size=N/A time=00:00:11.76 bitrate=N/A    frame=  711 fps= 10 q=24.8 size=N/A time=00:00:11.86 bitrate=N/A    frame=  717 fps= 10 q=24.8 size=N/A time=00:00:11.96 bitrate=N/A    frame=  723 fps= 10 q=24.8 size=N/A time=00:00:12.06 bitrate=N/A    frame=  729 fps= 10 q=24.8 size=N/A time=00:00:12.16 bitrate=N/A    frame=  735 fps= 10 q=24.8 size=N/A time=00:00:12.26 bitrate=N/A    frame=  741 fps= 10 q=24.8 size=N/A time=00:00:12.36 bitrate=N/A    frame=  747 fps= 10 q=24.8 size=N/A time=00:00:12.46 bitrate=N/A    frame=  752 fps= 10 q=24.8 size=N/A time=00:00:12.54 bitrate=N/A    frame=  757 fps= 10 q=24.8 size=N/A time=00:00:12.62 bitrate=N/A    frame=  762 fps= 10 q=24.8 size=N/A time=00:00:12.71 bitrate=N/A    frame=  767 fps= 10 q=24.8 size=N/A time=00:00:12.79 bitrate=N/A    frame=  772 fps= 10 q=24.8 size=N/A time=00:00:12.87 bitrate=N/A    frame=  777 fps= 10 q=24.8 size=N/A time=00:00:12.96 bitrate=N/A    frame=  782 fps= 10 q=24.8 size=N/A time=00:00:13.04 bitrate=N/A    frame=  787 fps= 10 q=24.8 size=N/A time=00:00:13.12 bitrate=N/A    frame=  792 fps= 10 q=24.8 size=N/A time=00:00:13.21 bitrate=N/A    frame=  797 fps= 10 q=24.8 size=N/A time=00:00:13.29 bitrate=N/A    frame=  802 fps= 10 q=24.8 size=N/A time=00:00:13.38 bitrate=N/A    frame=  807 fps= 10 q=24.8 size=N/A time=00:00:13.46 bitrate=N/A    frame=  812 fps= 10 q=24.8 size=N/A time=00:00:13.54 bitrate=N/A    frame=  817 fps= 10 q=24.8 size=N/A time=00:00:13.63 bitrate=N/A    frame=  822 fps= 10 q=24.8 size=N/A time=00:00:13.71 bitrate=N/A    frame=  827 fps= 10 q=24.8 size=N/A time=00:00:13.79 bitrate=N/A    frame=  832 fps= 10 q=24.8 size=N/A time=00:00:13.88 bitrate=N/A    frame=  837 fps= 10 q=24.8 size=N/A time=00:00:13.96 bitrate=N/A    frame=  842 fps= 10 q=24.8 size=N/A time=00:00:14.04 bitrate=N/A    frame=  847 fps= 10 q=24.8 size=N/A time=00:00:14.13 bitrate=N/A    frame=  852 fps= 10 q=24.8 size=N/A time=00:00:14.21 bitrate=N/A    frame=  857 fps= 10 q=24.8 size=N/A time=00:00:14.29 bitrate=N/A    frame=  862 fps= 10 q=24.8 size=N/A time=00:00:14.38 bitrate=N/A    frame=  867 fps= 10 q=24.8 size=N/A time=00:00:14.46 bitrate=N/A    frame=  872 fps= 10 q=24.8 size=N/A time=00:00:14.54 bitrate=N/A    frame=  877 fps= 10 q=24.8 size=N/A time=00:00:14.63 bitrate=N/A    frame=  882 fps= 10 q=24.8 size=N/A time=00:00:14.71 bitrate=N/A    frame=  887 fps= 10 q=24.8 size=N/A time=00:00:14.79 bitrate=N/A    frame=  892 fps= 10 q=24.8 size=N/A time=00:00:14.88 bitrate=N/A    frame=  897 fps= 10 q=24.8 size=N/A time=00:00:14.96 bitrate=N/A    frame=  902 fps= 10 q=24.8 size=N/A time=00:00:15.04 bitrate=N/A    frame=  907 fps= 10 q=24.8 size=N/A time=00:00:15.13 bitrate=N/A    frame=  912 fps= 10 q=24.8 size=N/A time=00:00:15.21 bitrate=N/A    frame=  917 fps= 10 q=24.8 size=N/A time=00:00:15.29 bitrate=N/A    frame=  922 fps= 10 q=24.8 size=N/A time=00:00:15.38 bitrate=N/A    frame=  927 fps= 10 q=24.8 size=N/A time=00:00:15.46 bitrate=N/A    frame=  932 fps= 10 q=24.8 size=N/A time=00:00:15.54 bitrate=N/A    frame=  937 fps= 10 q=24.8 size=N/A time=00:00:15.63 bitrate=N/A    frame=  942 fps= 10 q=24.8 size=N/A time=00:00:15.71 bitrate=N/A    frame=  947 fps= 10 q=24.8 size=N/A time=00:00:15.79 bitrate=N/A    frame=  952 fps= 10 q=24.8 size=N/A time=00:00:15.88 bitrate=N/A    frame=  957 fps= 10 q=24.8 size=N/A time=00:00:15.96 bitrate=N/A    frame=  962 fps= 10 q=24.8 size=N/A time=00:00:16.04 bitrate=N/A    frame=  967 fps= 10 q=24.8 size=N/A time=00:00:16.13 bitrate=N/A    frame=  972 fps= 10 q=24.8 size=N/A time=00:00:16.21 bitrate=N/A    frame=  977 fps= 10 q=24.8 size=N/A time=00:00:16.29 bitrate=N/A    frame=  982 fps= 10 q=24.8 size=N/A time=00:00:16.38 bitrate=N/A    frame=  987 fps= 10 q=24.8 size=N/A time=00:00:16.46 bitrate=N/A    frame=  992 fps= 10 q=24.8 size=N/A time=00:00:16.54 bitrate=N/A    frame=  997 fps= 10 q=24.8 size=N/A time=00:00:16.63 bitrate=N/A    frame= 1002 fps= 10 q=24.8 size=N/A time=00:00:16.71 bitrate=N/A    frame= 1007 fps= 10 q=24.8 size=N/A time=00:00:16.80 bitrate=N/A    frame= 1012 fps= 10 q=24.8 size=N/A time=00:00:16.88 bitrate=N/A    frame= 1017 fps= 10 q=24.8 size=N/A time=00:00:16.96 bitrate=N/A    frame= 1022 fps= 10 q=24.8 size=N/A time=00:00:17.05 bitrate=N/A    frame= 1027 fps= 10 q=24.8 size=N/A time=00:00:17.13 bitrate=N/A    frame= 1033 fps= 10 q=24.8 size=N/A time=00:00:17.23 bitrate=N/A    frame= 1039 fps= 10 q=24.8 size=N/A time=00:00:17.33 bitrate=N/A    frame= 1045 fps= 10 q=24.8 size=N/A time=00:00:17.43 bitrate=N/A    frame= 1051 fps= 10 q=24.8 size=N/A time=00:00:17.53 bitrate=N/A    frame= 1056 fps= 10 q=24.8 size=N/A time=00:00:17.61 bitrate=N/A    frame= 1062 fps= 10 q=24.8 size=N/A time=00:00:17.71 bitrate=N/A    frame= 1068 fps= 10 q=24.8 size=N/A time=00:00:17.81 bitrate=N/A    frame= 1074 fps= 10 q=24.8 size=N/A time=00:00:17.91 bitrate=N/A    frame= 1080 fps= 10 q=24.8 size=N/A time=00:00:18.01 bitrate=N/A    frame= 1085 fps= 10 q=24.8 size=N/A time=00:00:18.10 bitrate=N/A    frame= 1091 fps= 10 q=24.8 size=N/A time=00:00:18.20 bitrate=N/A    frame= 1097 fps= 10 q=24.8 size=N/A time=00:00:18.30 bitrate=N/A    frame= 1103 fps= 10 q=24.8 size=N/A time=00:00:18.40 bitrate=N/A    frame= 1109 fps= 10 q=24.8 size=N/A time=00:00:18.50 bitrate=N/A    frame= 1115 fps= 10 q=24.8 size=N/A time=00:00:18.60 bitrate=N/A    frame= 1121 fps= 10 q=24.8 size=N/A time=00:00:18.70 bitrate=N/A    frame= 1127 fps= 10 q=24.8 size=N/A time=00:00:18.80 bitrate=N/A    frame= 1133 fps= 10 q=24.8 size=N/A time=00:00:18.90 bitrate=N/A    frame= 1139 fps= 10 q=24.8 size=N/A time=00:00:19.00 bitrate=N/A    frame= 1144 fps= 10 q=24.8 size=N/A time=00:00:19.08 bitrate=N/A    frame= 1149 fps= 10 q=24.8 size=N/A time=00:00:19.16 bitrate=N/A    frame= 1155 fps= 10 q=24.8 size=N/A time=00:00:19.26 bitrate=N/A    frame= 1160 fps= 10 q=24.8 size=N/A time=00:00:19.35 bitrate=N/A    frame= 1165 fps= 10 q=24.8 size=N/A time=00:00:19.43 bitrate=N/A    frame= 1170 fps= 10 q=24.8 size=N/A time=00:00:19.51 bitrate=N/A    frame= 1175 fps= 10 q=24.8 size=N/A time=00:00:19.60 bitrate=N/A    frame= 1180 fps= 10 q=24.8 size=N/A time=00:00:19.68 bitrate=N/A    frame= 1185 fps= 10 q=24.8 size=N/A time=00:00:19.76 bitrate=N/A    frame= 1190 fps= 10 q=24.8 size=N/A time=00:00:19.85 bitrate=N/A    frame= 1195 fps= 10 q=24.8 size=N/A time=00:00:19.93 bitrate=N/A    frame= 1200 fps= 10 q=24.8 size=N/A time=00:00:20.02 bitrate=N/A    frame= 1205 fps= 10 q=24.8 size=N/A time=00:00:20.10 bitrate=N/A    frame= 1210 fps= 10 q=24.8 size=N/A time=00:00:20.18 bitrate=N/A    frame= 1215 fps= 10 q=24.8 size=N/A time=00:00:20.27 bitrate=N/A    frame= 1220 fps= 10 q=24.8 size=N/A time=00:00:20.35 bitrate=N/A    frame= 1225 fps= 10 q=24.8 size=N/A time=00:00:20.43 bitrate=N/A    frame= 1230 fps= 10 q=24.8 size=N/A time=00:00:20.52 bitrate=N/A    frame= 1235 fps= 10 q=24.8 size=N/A time=00:00:20.60 bitrate=N/A    frame= 1240 fps= 10 q=24.8 size=N/A time=00:00:20.68 bitrate=N/A    frame= 1245 fps= 10 q=24.8 size=N/A time=00:00:20.77 bitrate=N/A    frame= 1250 fps= 10 q=24.8 size=N/A time=00:00:20.85 bitrate=N/A    frame= 1255 fps= 10 q=24.8 size=N/A time=00:00:20.93 bitrate=N/A    frame= 1260 fps= 10 q=24.8 size=N/A time=00:00:21.02 bitrate=N/A    frame= 1265 fps= 10 q=24.8 size=N/A time=00:00:21.10 bitrate=N/A    frame= 1270 fps= 10 q=24.8 size=N/A time=00:00:21.18 bitrate=N/A    frame= 1275 fps= 10 q=24.8 size=N/A time=00:00:21.27 bitrate=N/A    frame= 1280 fps= 10 q=24.8 size=N/A time=00:00:21.35 bitrate=N/A    frame= 1285 fps= 10 q=24.8 size=N/A time=00:00:21.43 bitrate=N/A    frame= 1290 fps= 10 q=24.8 size=N/A time=00:00:21.52 bitrate=N/A    frame= 1295 fps= 10 q=24.8 size=N/A time=00:00:21.60 bitrate=N/A    frame= 1300 fps= 10 q=24.8 size=N/A time=00:00:21.68 bitrate=N/A    frame= 1305 fps= 10 q=24.8 size=N/A time=00:00:21.77 bitrate=N/A    frame= 1310 fps= 10 q=24.8 size=N/A time=00:00:21.85 bitrate=N/A    frame= 1315 fps= 10 q=24.8 size=N/A time=00:00:21.93 bitrate=N/A    frame= 1320 fps= 10 q=24.8 size=N/A time=00:00:22.02 bitrate=N/A    frame= 1325 fps= 10 q=24.8 size=N/A time=00:00:22.10 bitrate=N/A    frame= 1330 fps= 10 q=24.8 size=N/A time=00:00:22.18 bitrate=N/A    frame= 1335 fps= 10 q=24.8 size=N/A time=00:00:22.27 bitrate=N/A    frame= 1340 fps= 10 q=24.8 size=N/A time=00:00:22.35 bitrate=N/A    frame= 1345 fps= 10 q=24.8 size=N/A time=00:00:22.43 bitrate=N/A    frame= 1350 fps= 10 q=24.8 size=N/A time=00:00:22.52 bitrate=N/A    frame= 1355 fps= 10 q=24.8 size=N/A time=00:00:22.60 bitrate=N/A    frame= 1360 fps= 10 q=24.8 size=N/A time=00:00:22.68 bitrate=N/A    frame= 1365 fps= 10 q=24.8 size=N/A time=00:00:22.77 bitrate=N/A    frame= 1370 fps= 10 q=24.8 size=N/A time=00:00:22.85 bitrate=N/A    frame= 1375 fps= 10 q=24.8 size=N/A time=00:00:22.93 bitrate=N/A    frame= 1380 fps= 10 q=24.8 size=N/A time=00:00:23.02 bitrate=N/A    frame= 1385 fps= 10 q=24.8 size=N/A time=00:00:23.10 bitrate=N/A    frame= 1390 fps= 10 q=24.8 size=N/A time=00:00:23.18 bitrate=N/A    frame= 1395 fps= 10 q=24.8 size=N/A time=00:00:23.27 bitrate=N/A    frame= 1400 fps= 10 q=24.8 size=N/A time=00:00:23.35 bitrate=N/A    frame= 1405 fps= 10 q=24.8 size=N/A time=00:00:23.44 bitrate=N/A    frame= 1410 fps= 10 q=24.8 size=N/A time=00:00:23.52 bitrate=N/A    frame= 1415 fps= 10 q=24.8 size=N/A time=00:00:23.60 bitrate=N/A    frame= 1420 fps= 10 q=24.8 size=N/A time=00:00:23.69 bitrate=N/A    frame= 1425 fps= 10 q=24.8 size=N/A time=00:00:23.77 bitrate=N/A    frame= 1430 fps= 10 q=24.8 size=N/A time=00:00:23.85 bitrate=N/A    frame= 1435 fps= 10 q=24.8 size=N/A time=00:00:23.94 bitrate=N/A    frame= 1440 fps= 10 q=24.8 size=N/A time=00:00:24.02 bitrate=N/A    frame= 1445 fps= 10 q=24.8 size=N/A time=00:00:24.10 bitrate=N/A    frame= 1450 fps= 10 q=24.8 size=N/A time=00:00:24.19 bitrate=N/A    frame= 1455 fps= 10 q=24.8 size=N/A time=00:00:24.27 bitrate=N/A    frame= 1460 fps= 10 q=24.8 size=N/A time=00:00:24.35 bitrate=N/A    frame= 1465 fps= 10 q=24.8 size=N/A time=00:00:24.44 bitrate=N/A    frame= 1470 fps= 10 q=24.8 size=N/A time=00:00:24.52 bitrate=N/A    frame= 1475 fps= 10 q=24.8 size=N/A time=00:00:24.60 bitrate=N/A    frame= 1480 fps= 10 q=24.8 size=N/A time=00:00:24.69 bitrate=N/A    frame= 1485 fps= 10 q=24.8 size=N/A time=00:00:24.77 bitrate=N/A    frame= 1490 fps= 10 q=24.8 size=N/A time=00:00:24.85 bitrate=N/A    frame= 1495 fps= 10 q=24.8 size=N/A time=00:00:24.94 bitrate=N/A    frame= 1500 fps= 10 q=24.8 size=N/A time=00:00:25.02 bitrate=N/A    frame= 1505 fps= 10 q=24.8 size=N/A time=00:00:25.10 bitrate=N/A    frame= 1510 fps= 10 q=24.8 size=N/A time=00:00:25.19 bitrate=N/A    frame= 1515 fps= 10 q=24.8 size=N/A time=00:00:25.27 bitrate=N/A    frame= 1520 fps= 10 q=24.8 size=N/A time=00:00:25.35 bitrate=N/A    frame= 1525 fps= 10 q=24.8 size=N/A time=00:00:25.44 bitrate=N/A    frame= 1530 fps= 10 q=24.8 size=N/A time=00:00:25.52 bitrate=N/A    frame= 1535 fps= 10 q=24.8 size=N/A time=00:00:25.60 bitrate=N/A    frame= 1540 fps= 10 q=24.8 size=N/A time=00:00:25.69 bitrate=N/A    frame= 1545 fps= 10 q=24.8 size=N/A time=00:00:25.77 bitrate=N/A    frame= 1550 fps= 10 q=24.8 size=N/A time=00:00:25.85 bitrate=N/A    frame= 1555 fps= 10 q=24.8 size=N/A time=00:00:25.94 bitrate=N/A    frame= 1560 fps= 10 q=24.8 size=N/A time=00:00:26.02 bitrate=N/A    frame= 1565 fps= 10 q=24.8 size=N/A time=00:00:26.10 bitrate=N/A    frame= 1570 fps= 10 q=24.8 size=N/A time=00:00:26.19 bitrate=N/A    frame= 1575 fps= 10 q=24.8 size=N/A time=00:00:26.27 bitrate=N/A    frame= 1580 fps= 10 q=24.8 size=N/A time=00:00:26.35 bitrate=N/A    frame= 1585 fps= 10 q=24.8 size=N/A time=00:00:26.44 bitrate=N/A    frame= 1590 fps= 10 q=24.8 size=N/A time=00:00:26.52 bitrate=N/A    frame= 1595 fps= 10 q=24.8 size=N/A time=00:00:26.60 bitrate=N/A    frame= 1600 fps= 10 q=24.8 size=N/A time=00:00:26.69 bitrate=N/A    frame= 1605 fps= 10 q=24.8 size=N/A time=00:00:26.77 bitrate=N/A    frame= 1610 fps= 10 q=24.8 size=N/A time=00:00:26.86 bitrate=N/A    frame= 1615 fps= 10 q=24.8 size=N/A time=00:00:26.94 bitrate=N/A    frame= 1620 fps= 10 q=24.8 size=N/A time=00:00:27.02 bitrate=N/A    frame= 1625 fps= 10 q=24.8 size=N/A time=00:00:27.11 bitrate=N/A    frame= 1630 fps= 10 q=24.8 size=N/A time=00:00:27.19 bitrate=N/A    frame= 1635 fps= 10 q=24.8 size=N/A time=00:00:27.27 bitrate=N/A    frame= 1640 fps= 10 q=24.8 size=N/A time=00:00:27.36 bitrate=N/A    frame= 1645 fps= 10 q=24.8 size=N/A time=00:00:27.44 bitrate=N/A    frame= 1650 fps= 10 q=24.8 size=N/A time=00:00:27.52 bitrate=N/A    frame= 1655 fps= 10 q=24.8 size=N/A time=00:00:27.61 bitrate=N/A    frame= 1660 fps= 10 q=24.8 size=N/A time=00:00:27.69 bitrate=N/A    frame= 1665 fps=9.9 q=24.8 size=N/A time=00:00:27.77 bitrate=N/A    frame= 1670 fps=9.9 q=24.8 size=N/A time=00:00:27.86 bitrate=N/A    frame= 1675 fps=9.9 q=24.8 size=N/A time=00:00:27.94 bitrate=N/A    frame= 1680 fps=9.9 q=24.8 size=N/A time=00:00:28.02 bitrate=N/A    frame= 1685 fps=9.9 q=24.8 size=N/A time=00:00:28.11 bitrate=N/A    frame= 1690 fps=9.9 q=24.8 size=N/A time=00:00:28.19 bitrate=N/A    frame= 1695 fps=9.9 q=24.8 size=N/A time=00:00:28.27 bitrate=N/A    frame= 1700 fps=9.9 q=24.8 size=N/A time=00:00:28.36 bitrate=N/A    frame= 1705 fps=9.9 q=24.8 size=N/A time=00:00:28.44 bitrate=N/A    frame= 1710 fps=9.9 q=24.8 size=N/A time=00:00:28.52 bitrate=N/A    frame= 1715 fps=9.9 q=24.8 size=N/A time=00:00:28.61 bitrate=N/A    frame= 1720 fps=9.9 q=24.8 size=N/A time=00:00:28.69 bitrate=N/A    frame= 1725 fps=9.9 q=24.8 size=N/A time=00:00:28.77 bitrate=N/A    frame= 1730 fps=9.9 q=24.8 size=N/A time=00:00:28.86 bitrate=N/A    frame= 1735 fps=9.9 q=24.8 size=N/A time=00:00:28.94 bitrate=N/A    frame= 1740 fps=9.9 q=24.8 size=N/A time=00:00:29.02 bitrate=N/A    frame= 1745 fps=9.9 q=24.8 size=N/A time=00:00:29.11 bitrate=N/A    frame= 1750 fps=9.9 q=24.8 size=N/A time=00:00:29.19 bitrate=N/A    frame= 1755 fps=9.9 q=24.8 size=N/A time=00:00:29.27 bitrate=N/A    frame= 1760 fps=9.9 q=24.8 size=N/A time=00:00:29.36 bitrate=N/A    frame= 1765 fps=9.9 q=24.8 size=N/A time=00:00:29.44 bitrate=N/A    frame= 1770 fps=9.9 q=24.8 size=N/A time=00:00:29.52 bitrate=N/A    frame= 1775 fps=9.9 q=24.8 size=N/A time=00:00:29.61 bitrate=N/A    frame= 1780 fps=9.9 q=24.8 size=N/A time=00:00:29.69 bitrate=N/A    frame= 1785 fps=9.9 q=24.8 size=N/A time=00:00:29.77 bitrate=N/A    frame= 1790 fps=9.9 q=24.8 size=N/A time=00:00:29.86 bitrate=N/A    frame= 1795 fps=9.9 q=24.8 size=N/A time=00:00:29.94 bitrate=N/A    frame= 1800 fps=9.9 q=24.8 size=N/A time=00:00:30.03 bitrate=N/A    frame= 1805 fps=9.9 q=24.8 size=N/A time=00:00:30.11 bitrate=N/A    frame= 1810 fps=9.9 q=24.8 size=N/A time=00:00:30.19 bitrate=N/A    frame= 1815 fps=9.9 q=24.8 size=N/A time=00:00:30.28 bitrate=N/A    frame= 1820 fps=9.9 q=24.8 size=N/A time=00:00:30.36 bitrate=N/A    frame= 1825 fps=9.9 q=24.8 size=N/A time=00:00:30.44 bitrate=N/A    frame= 1830 fps=9.9 q=24.8 size=N/A time=00:00:30.53 bitrate=N/A    frame= 1835 fps=9.9 q=24.8 size=N/A time=00:00:30.61 bitrate=N/A    frame= 1840 fps=9.9 q=24.8 size=N/A time=00:00:30.69 bitrate=N/A    frame= 1845 fps=9.9 q=24.8 size=N/A time=00:00:30.78 bitrate=N/A    frame= 1850 fps=9.9 q=24.8 size=N/A time=00:00:30.86 bitrate=N/A    frame= 1855 fps=9.9 q=24.8 size=N/A time=00:00:30.94 bitrate=N/A    frame= 1860 fps=9.9 q=24.8 size=N/A time=00:00:31.03 bitrate=N/A    frame= 1865 fps=9.9 q=24.8 size=N/A time=00:00:31.11 bitrate=N/A    frame= 1870 fps=9.9 q=24.8 size=N/A time=00:00:31.19 bitrate=N/A    frame= 1875 fps=9.9 q=24.8 size=N/A time=00:00:31.28 bitrate=N/A    frame= 1880 fps=9.9 q=24.8 size=N/A time=00:00:31.36 bitrate=N/A    frame= 1885 fps=9.9 q=24.8 size=N/A time=00:00:31.44 bitrate=N/A    frame= 1890 fps=9.9 q=24.8 size=N/A time=00:00:31.53 bitrate=N/A    frame= 1895 fps=9.9 q=24.8 size=N/A time=00:00:31.61 bitrate=N/A    frame= 1900 fps=9.9 q=24.8 size=N/A time=00:00:31.69 bitrate=N/A    frame= 1905 fps=9.9 q=24.8 size=N/A time=00:00:31.78 bitrate=N/A    frame= 1910 fps=9.9 q=24.8 size=N/A time=00:00:31.86 bitrate=N/A    frame= 1915 fps=9.9 q=24.8 size=N/A time=00:00:31.94 bitrate=N/A    frame= 1920 fps=9.9 q=24.8 size=N/A time=00:00:32.03 bitrate=N/A    frame= 1925 fps=9.9 q=24.8 size=N/A time=00:00:32.11 bitrate=N/A    frame= 1930 fps=9.9 q=24.8 size=N/A time=00:00:32.19 bitrate=N/A    frame= 1935 fps=9.9 q=24.8 size=N/A time=00:00:32.28 bitrate=N/A    frame= 1940 fps=9.9 q=24.8 size=N/A time=00:00:32.36 bitrate=N/A    frame= 1945 fps=9.9 q=24.8 size=N/A time=00:00:32.44 bitrate=N/A    frame= 1950 fps=9.9 q=24.8 size=N/A time=00:00:32.53 bitrate=N/A    frame= 1955 fps=9.9 q=24.8 size=N/A time=00:00:32.61 bitrate=N/A    frame= 1960 fps=9.9 q=24.8 size=N/A time=00:00:32.69 bitrate=N/A    frame= 1965 fps=9.9 q=24.8 size=N/A time=00:00:32.78 bitrate=N/A    frame= 1970 fps=9.9 q=24.8 size=N/A time=00:00:32.86 bitrate=N/A    frame= 1975 fps=9.9 q=24.8 size=N/A time=00:00:32.94 bitrate=N/A    frame= 1980 fps=9.9 q=24.8 size=N/A time=00:00:33.03 bitrate=N/A    frame= 1985 fps=9.9 q=24.8 size=N/A time=00:00:33.11 bitrate=N/A    frame= 1990 fps=9.9 q=24.8 size=N/A time=00:00:33.19 bitrate=N/A    frame= 1994 fps=9.9 q=24.8 size=N/A time=00:00:33.26 bitrate=N/A    frame= 1994 fps=9.9 q=24.8 Lsize=N/A time=00:00:33.26 bitrate=N/A    
video:1048943kB audio:0kB subtitle:0kB other streams:0kB global headers:0kB muxing overhead: unknown
+ turkic load DJI_0018_30m_fekhelyek_gyer_gabonaban_Homokmegy_20180425_napos_kalaszos_T3 /home/horvathandras/vatic/vatic/videos/DJI_0018_30m_fekhelyek_gyer_gabonaban_Homokmegy_20180425_napos_kalaszos_T3 $'Pozit\303\255vROI' $'Negat\303\255vROI' $'T\303\272r\303\241s' '~Friss' '~Régebbi' $'R\303\241g\303\241s' '~Friss' '~Régebbi' $'T\303\266r\303\251s' '~Friss' '~Régebbi' $'Tapos\303\241s' '~Friss' '~Régebbi' $'Eg\303\251szs\303\251gesN\303\266v\303\251ny' $'Egy\303\251b1' $'Egy\303\251b2' $'Egy\303\251b3' $'Egy\303\251b4' $'Egy\303\251b5' --offline --title '$filenameNoDot Video' --length 1000 --description 'vatic annotation'
+ turkic publish --offline
+ mkdir /home/horvathandras/vatic/vatic/public/videothumbnails/DJI_0018_30m_fekhelyek_gyer_gabonaban_Homokmegy_20180425_napos_kalaszos_T3
+ cp /home/horvathandras/vatic/vatic/videos/DJI_0018_30m_fekhelyek_gyer_gabonaban_Homokmegy_20180425_napos_kalaszos_T3/0/0/31.jpg /home/horvathandras/vatic/vatic/public/videothumbnails/DJI_0018_30m_fekhelyek_gyer_gabonaban_Homokmegy_20180425_napos_kalaszos_T3/thumb.jpg
